<?xml version="1.0" standalone="no"?>
<!DOCTYPE svg PUBLIC "-//W3C//DTD SVG 20010904//EN"
 "http://www.w3.org/TR/2001/REC-SVG-20010904/DTD/svg10.dtd">
<svg version="1.0" xmlns="http://www.w3.org/2000/svg"
 width="1024.000000pt" height="1024.000000pt" viewBox="0 0 1024.000000 1024.000000"
 preserveAspectRatio="xMidYMid meet">

<g transform="translate(0.000000,1024.000000) scale(0.100000,-0.100000)"
fill="#000000" stroke="none">
<path d="M3943 8853 c-5 -1 -21 -4 -36 -7 -33 -8 -112 -77 -135 -120 -15 -27
-17 -74 -20 -335 -2 -167 -1 -315 3 -328 7 -30 76 -106 121 -134 32 -19 42
-20 194 -13 97 4 160 3 160 -2 0 -6 27 -40 59 -76 32 -37 71 -83 87 -103 l27
-36 -35 -37 c-56 -58 -71 -96 -66 -167 4 -69 37 -126 84 -147 24 -11 25 -15
22 -97 l-3 -86 -365 -3 c-229 -2 -378 -7 -400 -14 -102 -31 -196 -115 -242
-213 l-23 -50 1 -1771 0 -1771 37 -76 c42 -90 98 -149 188 -197 l64 -35 1570
0 1570 0 59 30 c87 44 160 114 198 193 l33 67 0 1780 0 1780 -24 60 c-33 82
-116 164 -194 193 -55 21 -73 22 -426 22 l-368 0 -6 87 -5 88 39 33 c52 45 69
80 69 144 0 58 -17 93 -69 146 l-32 32 48 64 c26 35 67 84 91 110 l42 46 169
0 168 0 41 30 c23 16 53 47 67 68 l25 39 -4 325 c-5 360 -4 358 -71 416 -81
71 43 66 -1402 66 -717 1 -1306 0 -1310 -1z m2620 -173 c43 -48 37 -56 -50
-63 -43 -4 -628 -4 -1301 -2 -1360 6 -1281 9 -1301 -59 l-9 -31 -1 30 c-1 17
-4 46 -7 65 -5 30 -1 41 23 65 l28 30 1295 -3 1295 -2 28 -30z m-1003 -1080
c157 -6 301 -15 320 -19 35 -8 35 -8 -25 -20 -91 -20 -87 -17 -74 -43 29 -56
29 -55 -3 -62 -17 -3 -92 -6 -168 -6 l-138 0 -20 34 c-12 19 -46 52 -77 73
-48 31 -68 38 -121 41 -54 4 -72 0 -119 -22 -30 -15 -74 -49 -98 -76 l-43 -48
-267 -3 c-180 -2 -270 0 -278 8 -23 23 -13 73 21 108 l34 35 305 1 c169 1 333
4 366 8 33 4 69 6 80 4 11 -1 148 -7 305 -13z m-245 -163 c43 -42 58 -70 33
-64 -6 1 -17 -9 -24 -23 -27 -55 -45 -103 -40 -108 3 -3 22 12 42 34 37 38 37
38 20 6 -19 -36 -35 -47 -89 -56 -84 -15 -167 48 -167 127 0 23 7 53 16 65 22
31 82 61 126 62 31 0 46 -8 83 -43z m-351 -119 c17 -56 36 -117 42 -131 6 -16
-8 -17 -160 -17 l-166 0 0 75 0 74 88 4 c48 1 111 4 140 5 35 1 54 -2 56 -10z
m1891 -314 c23 -12 54 -41 73 -69 l32 -48 -2 -621 c-1 -341 -4 -601 -8 -576
-6 46 -9 43 -23 -25 -4 -17 -5 -17 -6 3 0 13 -5 20 -11 17 -6 -4 -11 -61 -11
-133 -1 -70 -5 -140 -9 -157 -4 -16 -8 304 -9 713 0 740 0 743 -21 773 -46 63
69 59 -1598 59 -836 0 -1534 -3 -1552 -6 -24 -5 -39 -18 -59 -50 -14 -24 -31
-44 -37 -44 -6 0 -9 -12 -7 -27 2 -16 0 -793 -5 -1728 -7 -1399 -6 -1706 5
-1735 12 -32 11 -33 -2 -16 -8 11 -15 25 -15 32 0 18 -30 26 -47 13 -7 -7 -17
-9 -21 -5 -4 4 -10 782 -13 1729 -4 947 -7 1733 -8 1745 -3 58 69 140 148 168
29 11 344 13 1601 11 1561 -2 1565 -2 1605 -23z m-453 -614 c16 0 40 -13 62
-33 l35 -33 -3 -410 c-2 -225 -4 -593 -5 -818 0 -225 -3 -407 -6 -405 -2 3 -5
30 -6 61 -2 53 -3 55 -20 39 -11 -8 -19 -22 -20 -31 0 -10 -3 -9 -9 5 -8 18
-9 17 -9 -7 -1 -16 4 -28 10 -28 6 0 8 -9 4 -22 -12 -38 -11 -40 14 -44 14 -3
27 -6 29 -9 8 -8 -38 -71 -60 -83 -16 -8 -348 -12 -1166 -16 -982 -5 -1147 -4
-1171 9 -35 18 -91 80 -92 103 0 9 0 325 1 702 0 404 -4 728 -10 789 -6 69 -7
117 0 141 9 34 51 83 78 91 9 3 2142 2 2344 -1z"/>
<path d="M4131 6270 c-37 -34 -42 -44 -37 -66 11 -42 69 -94 104 -94 91 0 134
135 58 181 -46 28 -75 23 -125 -21z m83 -26 c20 -8 21 -53 2 -60 -18 -7 -56
13 -56 29 0 14 20 37 31 37 4 0 14 -3 23 -6z"/>
<path d="M6232 6295 c-31 -22 -55 -72 -48 -100 3 -13 22 -37 42 -55 30 -26 42
-31 68 -26 50 10 86 52 86 102 0 58 -24 85 -80 91 -32 3 -52 0 -68 -12z m78
-63 c0 -10 -5 -23 -12 -30 -7 -7 -20 -12 -30 -12 -21 0 -24 30 -6 48 18 18 48
15 48 -6z"/>
<path d="M4180 5996 l0 -46 39 6 c38 6 38 6 44 -32 4 -22 7 -72 7 -111 l0 -73
33 0 32 0 -3 116 -4 116 43 -3 c40 -3 43 -2 51 26 4 16 6 30 5 31 -1 1 -57 5
-124 9 l-123 7 0 -46z"/>
<path d="M4505 6025 c-16 -8 -45 -37 -64 -65 -40 -59 -38 -88 10 -155 87 -121
274 -67 272 78 -1 52 -35 113 -79 142 -29 19 -100 19 -139 0z m116 -74 c22
-22 29 -39 29 -68 0 -46 -7 -57 -44 -77 -26 -13 -34 -13 -65 0 -92 37 -95 113
-6 162 33 18 55 14 86 -17z"/>
<path d="M4746 5948 c-3 -50 -6 -117 -6 -149 l0 -57 36 0 37 0 -6 80 -5 81 35
-49 c19 -27 40 -59 46 -71 17 -37 32 -27 66 42 18 36 36 65 42 65 5 0 9 -34 9
-75 l0 -75 28 0 27 0 2 146 2 145 -37 -3 c-35 -3 -39 -6 -71 -75 -19 -40 -37
-73 -41 -73 -4 0 -17 22 -29 49 -32 67 -60 98 -97 104 l-31 6 -7 -91z"/>
<path d="M5193 5883 l2 -151 38 -4 37 -4 0 58 0 58 60 0 60 0 0 31 0 31 -65
-4 -65 -4 0 38 0 38 80 0 80 0 0 33 0 32 -115 0 -114 0 2 -152z"/>
<path d="M5504 6015 c-58 -35 -74 -63 -74 -133 0 -87 41 -131 135 -146 52 -9
120 25 153 74 43 64 12 165 -64 207 -51 29 -99 29 -150 -2z m137 -74 c16 -17
29 -40 29 -54 0 -29 -33 -73 -60 -82 -34 -11 -89 14 -106 47 -46 89 64 161
137 89z"/>
<path d="M5760 5889 c0 -144 0 -147 23 -153 43 -11 47 -8 47 44 0 29 5 50 11
50 24 0 48 -22 62 -58 15 -36 39 -58 55 -48 4 2 59 9 122 16 136 13 173 31
202 97 24 55 17 100 -27 150 l-33 38 -96 5 -96 5 1 -130 c0 -123 -5 -165 -20
-165 -3 0 -19 21 -35 46 -24 37 -27 50 -18 63 33 46 43 75 38 106 -11 56 -36
69 -142 75 l-94 5 0 -146z m161 71 c44 -24 2 -70 -63 -70 -41 0 -41 1 -32 49
6 27 10 31 41 31 19 0 43 -5 54 -10z m289 -15 c48 -44 -2 -135 -74 -135 -33 0
-36 3 -36 28 0 15 -3 51 -7 81 l-6 54 52 -5 c29 -3 60 -13 71 -23z"/>
<path d="M4280 5639 c0 -8 -3 -24 -6 -36 -6 -21 -3 -23 40 -23 l46 0 0 -116 0
-116 27 6 c17 5 29 3 34 -6 5 -7 9 41 9 110 l0 122 45 0 c43 0 45 1 45 30 0
30 0 30 -59 30 -32 0 -86 3 -120 6 -48 6 -61 4 -61 -7z"/>
<path d="M4602 5620 c-52 -38 -64 -60 -64 -123 1 -57 19 -88 73 -125 85 -59
219 22 219 132 0 50 -26 92 -77 123 -53 32 -101 30 -151 -7z m129 -59 c37 -38
39 -82 4 -116 -64 -65 -164 20 -121 104 25 48 75 54 117 12z"/>
<path d="M4867 5511 c-3 -78 -4 -148 -1 -155 3 -9 25 -10 92 -4 93 9 125 24
152 71 14 25 13 28 -18 60 -33 34 -33 34 -16 64 34 58 -8 92 -124 100 l-79 6
-6 -142z m143 64 c18 -22 3 -35 -41 -35 -35 0 -39 3 -39 25 0 22 4 25 34 25
18 0 39 -7 46 -15z m10 -115 c16 -29 4 -40 -40 -40 -30 0 -40 5 -45 20 -9 29
2 40 40 40 24 0 38 -6 45 -20z"/>
<path d="M5774 5631 c-90 -55 -115 -148 -58 -217 45 -56 91 -77 143 -65 51 11
81 36 81 67 0 35 -33 48 -55 24 -27 -29 -71 -25 -106 9 -33 33 -36 56 -13 89
25 37 50 45 83 27 17 -8 42 -15 56 -15 23 0 26 4 23 27 -4 32 -58 73 -97 73
-14 0 -40 -9 -57 -19z"/>
<path d="M6029 5618 c-69 -54 -82 -77 -73 -134 5 -39 15 -57 45 -86 87 -84
204 -66 258 39 35 69 -11 160 -101 198 -55 22 -82 19 -129 -17z m118 -63 c23
-14 43 -30 43 -35 0 -4 3 -15 6 -24 10 -27 -40 -66 -84 -66 -68 0 -103 70 -62
123 27 33 42 34 97 2z"/>
<path d="M5233 5628 c-5 -7 -22 -42 -37 -78 -16 -36 -37 -83 -46 -105 -30 -66
-29 -105 0 -105 13 0 28 13 41 35 20 33 24 35 72 35 59 0 71 -6 81 -37 8 -26
53 -32 62 -9 3 8 -13 52 -36 98 -78 158 -112 199 -137 166z m51 -120 c9 -36 8
-38 -24 -38 -34 0 -36 6 -14 38 19 28 30 28 38 0z"/>
<path d="M5482 5620 c-88 -54 -95 -156 -15 -232 59 -56 129 -55 178 4 41 49
15 74 -47 44 -45 -23 -63 -20 -92 15 -32 38 -36 93 -7 109 25 13 72 13 105 0
14 -5 33 -7 41 -4 22 9 18 51 -7 68 -32 23 -115 21 -156 -4z"/>
<path d="M4570 5178 c0 -54 4 -98 9 -98 5 0 16 -3 25 -6 13 -5 15 -1 10 24 -6
28 -4 30 31 36 46 9 75 38 75 75 0 39 -16 49 -88 59 l-62 9 0 -99z m124 47
c-6 -14 -64 -55 -78 -55 -14 0 -5 50 12 59 28 17 72 14 66 -4z"/>
<path d="M4957 5193 c-6 -88 0 -113 29 -113 9 0 14 11 14 30 0 44 35 41 54 -5
14 -34 38 -46 51 -25 3 5 -2 21 -11 35 -13 20 -14 29 -5 38 6 6 11 28 11 49 0
36 -3 40 -42 58 -24 11 -55 20 -69 20 -26 0 -26 -1 -32 -87z m97 -1 c-16 -25
-38 -21 -42 7 -5 30 18 45 38 25 11 -11 12 -19 4 -32z"/>
<path d="M5218 5273 l-58 -4 0 -99 c0 -92 2 -100 19 -100 16 0 20 8 23 37 3
34 6 38 41 46 48 12 50 37 2 37 -23 0 -35 5 -35 14 0 16 21 26 56 26 19 0 24
5 24 25 0 14 -3 24 -7 23 -5 -1 -34 -3 -65 -5z"/>
<path d="M5351 5195 c4 -78 7 -89 28 -106 62 -51 121 3 121 112 0 54 -12 79
-37 79 -10 0 -11 -17 -6 -75 6 -74 6 -75 -18 -75 -39 0 -48 12 -56 79 -5 40
-13 66 -22 69 -10 3 -12 -13 -10 -83z"/>
<path d="M5695 5238 c-11 -24 -20 -45 -21 -47 -2 -2 -20 15 -42 38 -63 66 -72
59 -72 -59 0 -93 1 -100 20 -100 18 0 20 7 21 68 1 62 2 64 11 32 5 -19 14
-46 20 -60 10 -24 10 -24 24 -5 8 11 25 31 37 45 l22 25 3 -51 c3 -47 5 -51
23 -47 19 5 21 12 17 95 -2 65 -7 91 -18 98 -23 15 -26 13 -45 -32z"/>
<path d="M5813 5178 c3 -57 8 -102 11 -100 3 1 33 2 66 2 53 0 60 2 60 20 0
17 -7 20 -46 20 -38 0 -45 3 -42 18 2 12 14 18 41 20 53 5 51 32 -3 32 -33 0
-40 3 -40 20 0 16 7 20 38 20 39 0 62 14 62 37 0 10 -20 13 -76 13 l-76 0 5
-102z"/>
<path d="M4770 5216 c0 -29 3 -73 6 -97 l6 -45 54 0 c55 0 69 11 58 41 -4 10
-20 15 -45 15 -21 0 -39 5 -39 10 0 6 9 10 19 10 32 0 51 11 51 30 0 16 -6 18
-36 13 -32 -5 -36 -4 -32 13 2 14 14 20 43 24 27 3 41 10 43 23 3 15 -5 17
-62 17 l-66 0 0 -54z"/>
<path d="M5224 4940 c-47 -18 -54 -62 -18 -117 33 -52 104 -13 104 56 0 51
-38 78 -86 61z"/>
<path d="M6244 4846 c-74 -33 -84 -98 -24 -158 35 -35 44 -40 73 -34 19 4 47
22 70 47 32 32 38 45 32 66 -10 42 -38 72 -75 83 -42 12 -38 12 -76 -4z m70
-62 c9 -22 -11 -44 -40 -44 -28 0 -32 21 -8 44 20 21 40 20 48 0z"/>
<path d="M4115 4827 c-17 -14 -28 -36 -32 -63 -4 -33 -1 -45 21 -71 15 -18 36
-35 47 -38 52 -17 139 49 139 104 0 75 -115 120 -175 68z m93 -63 c-4 -24 -58
-33 -58 -10 0 19 41 49 53 37 5 -5 7 -17 5 -27z"/>
<path d="M6385 4680 c-3 -5 -1 -10 4 -10 6 0 11 5 11 10 0 6 -2 10 -4 10 -3 0
-8 -4 -11 -10z"/>
<path d="M5785 4650 c-3 -5 1 -10 10 -10 9 0 13 5 10 10 -3 6 -8 10 -10 10 -2
0 -7 -4 -10 -10z"/>
<path d="M5910 4629 c0 -5 5 -7 10 -4 6 3 10 8 10 11 0 2 -4 4 -10 4 -5 0 -10
-5 -10 -11z"/>
<path d="M6030 4621 c0 -6 4 -13 10 -16 6 -3 7 1 4 9 -7 18 -14 21 -14 7z"/>
<path d="M3965 2646 c-143 -45 -225 -153 -225 -296 0 -92 78 -198 178 -242 71
-32 176 -28 242 8 71 39 135 113 157 180 14 45 15 63 5 115 -21 114 -83 185
-198 229 -62 23 -101 24 -159 6z m155 -118 c54 -37 73 -71 77 -135 7 -107 -62
-183 -166 -183 -66 0 -111 23 -141 72 -72 119 11 268 151 268 31 0 57 -7 79
-22z"/>
<path d="M5733 2642 c-139 -49 -219 -157 -217 -292 1 -106 63 -193 173 -243
65 -30 179 -30 238 1 60 31 109 77 141 131 35 60 38 161 5 232 -63 139 -215
215 -340 171z m158 -125 c103 -69 105 -233 4 -292 -79 -47 -191 -22 -237 53
-47 77 -15 203 62 244 50 26 128 24 171 -5z"/>
<path d="M3326 2594 l2 -57 86 2 86 2 0 -225 0 -226 61 0 61 0 -7 226 -8 227
82 -5 81 -5 5 36 c14 85 40 76 -220 79 l-232 2 3 -56z"/>
<path d="M4837 2643 l-57 -4 -38 -77 c-21 -42 -54 -119 -72 -170 l-33 -93 -84
170 -83 171 -61 0 -61 0 6 -31 c3 -17 6 -140 6 -273 l0 -241 57 -2 56 -2 -7
170 c-4 93 -5 169 -2 169 2 0 17 -33 32 -72 56 -148 111 -255 134 -261 14 -4
23 0 27 11 3 9 23 55 44 102 21 47 48 112 61 145 l23 60 5 -164 5 -163 50 -2
50 -1 1 283 c1 155 1 281 0 280 -1 -1 -27 -3 -59 -5z"/>
<path d="M5309 2643 l-197 -3 -7 -276 c-4 -151 -6 -276 -4 -278 2 -1 30 0 62
2 l57 4 0 99 0 99 136 0 135 0 -3 53 -3 52 -132 -4 -133 -4 0 70 0 70 89 7
c48 4 116 4 150 0 l61 -7 0 62 c0 33 -3 60 -7 59 -5 -2 -96 -4 -204 -5z"/>
<path d="M6610 2390 c0 -140 -3 -266 -7 -279 l-6 -24 144 5 c165 6 194 15 265
80 116 106 128 271 28 378 -68 72 -119 89 -287 92 l-137 3 0 -255z m263 136
c105 -43 138 -178 66 -261 -35 -40 -80 -55 -161 -55 l-58 0 0 165 0 165 60 0
c33 0 75 -6 93 -14z"/>
<path d="M6140 2363 l0 -278 55 0 55 0 0 98 0 97 43 0 c42 -1 42 -1 88 -78 25
-42 49 -85 52 -94 5 -15 18 -18 72 -18 36 0 65 2 65 5 0 2 -21 39 -47 82 -25
43 -52 87 -58 98 -10 16 -8 22 19 40 44 30 76 82 76 124 0 94 -48 165 -127
189 -22 7 -97 12 -167 12 l-126 0 0 -277z m287 155 c7 -6 18 -28 24 -51 9 -35
8 -42 -10 -61 -18 -17 -36 -22 -106 -25 l-85 -3 0 82 0 82 83 -7 c45 -4 88
-12 94 -17z"/>
<path d="M4648 1912 l-78 -3 0 -130 c0 -116 2 -130 16 -125 9 3 45 6 80 6 l64
0 0 30 c0 30 0 30 -56 30 -47 0 -55 3 -52 18 2 12 16 19 43 22 33 4 41 9 43
29 4 23 2 24 -42 19 -43 -5 -46 -4 -46 18 0 25 14 31 80 36 25 2 36 8 38 22 6
28 -6 31 -90 28z"/>
<path d="M5130 1794 c0 -68 -1 -127 -2 -131 -2 -5 11 -9 27 -11 30 -3 30 -3
30 50 l0 53 43 3 c37 3 42 6 42 28 0 22 -4 24 -45 24 -41 0 -45 2 -45 25 0 20
5 25 24 25 53 0 86 12 86 32 0 17 -5 18 -49 12 -28 -4 -63 -2 -80 4 l-31 11 0
-125z"/>
<path d="M5375 1907 c-22 -72 -9 -186 25 -222 30 -32 82 -42 114 -22 40 26 56
76 56 171 0 80 -1 86 -20 86 -27 0 -40 -36 -40 -114 0 -70 -13 -90 -52 -84
-21 3 -23 9 -25 63 -4 96 -11 122 -34 128 -11 3 -22 0 -24 -6z"/>
<path d="M5674 1905 c-3 -6 -3 -60 -2 -121 l3 -109 27 -3 c26 -3 27 -2 30 54
l3 58 28 -42 c15 -23 31 -42 37 -42 5 0 20 19 34 42 l25 42 7 -28 c3 -15 4
-40 0 -56 -5 -29 -4 -30 30 -30 29 0 35 3 30 16 -3 9 -6 63 -6 120 l0 104 -32
0 c-30 0 -35 -5 -51 -44 -31 -74 -42 -76 -74 -9 -24 50 -32 58 -56 59 -16 1
-31 -4 -33 -11z"/>
<path d="M4300 1788 c0 -69 2 -127 5 -130 3 -2 18 -3 34 0 27 4 29 6 24 42
l-5 37 43 6 c76 10 114 84 71 137 -15 19 -31 24 -95 28 l-77 5 0 -125z m120
31 c0 -16 -5 -20 -27 -17 -30 3 -44 35 -22 49 19 11 49 -8 49 -32z"/>
<path d="M4840 1808 c0 -57 -3 -113 -6 -124 -4 -14 0 -23 10 -27 28 -11 45 4
48 41 4 49 28 52 52 8 28 -52 49 -68 80 -60 l27 6 -36 43 c-19 24 -35 46 -35
49 0 3 11 16 25 30 33 34 32 71 -4 107 -27 26 -36 29 -95 29 l-66 0 0 -102z
m115 22 c0 -21 -5 -26 -32 -28 -27 -3 -33 0 -33 15 0 26 21 44 45 41 14 -2 20
-11 20 -28z"/>
<path d="M6025 1902 c-3 -3 -5 -59 -5 -124 l0 -118 85 0 85 0 0 30 c0 28 -1
29 -57 32 -43 2 -58 7 -58 18 0 10 16 18 48 23 76 15 56 46 -25 39 -13 -1 -18
6 -18 23 0 25 10 29 90 37 16 2 25 9 25 21 0 15 -11 18 -83 21 -45 1 -84 0
-87 -2z"/>
<path d="M3889 1778 c-48 -38 -24 -88 42 -88 60 0 100 50 64 80 -22 18 -87 24
-106 8z"/>
<path d="M6508 1779 c-38 -21 -9 -75 42 -79 63 -5 100 12 100 45 0 39 -95 62
-142 34z"/>
</g>
</svg>
